# xmcd
#
# Track frame offsets: 
#        150
#        10823
#        27303
#        50813
#        66931
#        75552
#        81158
#        91267
#        101864
#        106751
#        115377
#        130090
#        138975
#        193855
#        204389
#        246233
#        272991
#
# Disc length: 4378 seconds
#
# Revision: 0
# Processed by: cddbd v1.5.2PL0 Copyright (c) Steve Scherf et al.
# Submitted via: ExactAudioCopy v0.95b4
#
DISCID=f0111811
DTITLE=James Brown - Get Up Offa That Thing
DYEAR=2005
DGENRE=Funk
TTITLE0=Get Up Offa That Thing
TTITLE1=Gonna Have A Funky Good Time (Doing it to Death)
TTITLE2=It's Too Funky in Here
TTITLE3=I Got A Feeling
TTITLE4=Turn it Loose (Give it Up)
TTITLE5=Cold Sweat
TTITLE6=I Got You ( I Feel Good)
TTITLE7=Papas Got a Brand New Bag
TTITLE8=Out of Sight
TTITLE9=Try Me
TTITLE10=Get On the Good Foot
TTITLE11=I Can't Stand Myself
TTITLE12=Super Bad
TTITLE13=Disco Rap
TTITLE14=Prisoner of Love
TTITLE15=Georgia On My Mind
TTITLE16=It's a Man's Man's Man's World
EXTD=
EXTT0=
EXTT1=
EXTT2=
EXTT3=
EXTT4=
EXTT5=
EXTT6=
EXTT7=
EXTT8=
EXTT9=
EXTT10=
EXTT11=
EXTT12=
EXTT13=
EXTT14=
EXTT15=
EXTT16=
PLAYORDER=
